# xmcd
#
# Track frame offsets:
#	150
#	24989
#	46787
#	77106
#	106317
#	127456
#	151783
#	177432
#	203628
#
# Disc length: 2934 seconds
# Revision: 0
# Processed by: cddbd v1.5.2PL0 Copyright (c) Steve Scherf et al.
# Submitted via: dBpowerAMP V12.0
#
DISCID=6d0b7409
DTITLE=City Boys Allstars, The - Blinded By the Night
DYEAR=2014
DGENRE=Blues
TTITLE0=Testimony
TTITLE1=Funky Peaches
TTITLE2=Where Have You Been
TTITLE3=God Bless The Child
TTITLE4=Strung Out
TTITLE5=The Vow
TTITLE6=More Where That Came From
TTITLE7=When You Needed Me
TTITLE8=City Boy Blues
EXTD=
EXTT0=
EXTT1=
EXTT2=
EXTT3=
EXTT4=
EXTT5=
EXTT6=
EXTT7=
EXTT8=
PLAYORDER=
